<svg id="レイヤー_1" data-name="レイヤー 1" xmlns="http://www.w3.org/2000/svg" viewBox="0 0 48 48"><defs><style>.cls-1{fill:#cecede;}.cls-2{fill:#fff;}.cls-3{fill:#222;}</style></defs><rect class="cls-1" x="10" y="7" width="28" height="34" rx="2"/><path class="cls-2" d="M42.84,24.72a4.57,4.57,0,0,0-1.41-1.46l.06,0c.62-.24.47-1.35-.1-1.57.74-1,2.1-2.78,1.43-4a1.78,1.78,0,0,0-1.13-.81,4.88,4.88,0,0,0-2.4,0,12.51,12.51,0,0,0-5.41,3.26,15.64,15.64,0,0,0-1.35,1.56l-8.8.06c1.44-1.88,2.06-3.66,1.37-4.35-.88-.88-3.52.35-5.91,2.73a15.68,15.68,0,0,0-1.41,1.62H6.49a1.51,1.51,0,0,0-1.07,2.56c3.8,3.93,7.6,5.6,12.8,5.37l.19.14,1.69.77a8.59,8.59,0,0,0,6.73.14l2.52-1a1.21,1.21,0,0,0,.21-2.15l-.13-.28c2-.62,4.22-1.3,6.63-2.1a10.48,10.48,0,0,0,1,.57,8.13,8.13,0,0,0,3.27.88c.75,0,2.12,0,2.54-.78A1.17,1.17,0,0,0,42.84,24.72Z"/><path class="cls-3" d="M43.73,24.26a4.85,4.85,0,0,0-1.29-1.49,1.72,1.72,0,0,0,0-.68c0-.05,0-.08-.05-.13.91-1.21,2.19-3.14,1.29-4.81a2.77,2.77,0,0,0-1.76-1.31,5.83,5.83,0,0,0-2.9,0,13.34,13.34,0,0,0-5.86,3.53c-.41.41-.8.86-1.18,1.32H25.58c1-1.76,1.06-3.22.23-4.06-1.58-1.57-4.91.32-7.33,2.74a16.45,16.45,0,0,0-1.17,1.32H6.5A2.51,2.51,0,0,0,4.7,25c3.86,4,7.76,5.72,12.66,5.72l.6,0,0,0,1.7.77a9.67,9.67,0,0,0,3.95.84,9.5,9.5,0,0,0,3.56-.68l2.53-1a2.22,2.22,0,0,0,1.38-1.85,2.16,2.16,0,0,0-.14-.94c1.52-.51,3.1-1.07,4.79-1.7.29.17.57.35.87.5a9,9,0,0,0,3.68,1h.25c1.62,0,2.69-.43,3.18-1.28A2.16,2.16,0,0,0,43.73,24.26Zm-4.18-6.45a3.87,3.87,0,0,1,1.88,0,.82.82,0,0,1,.51.32c.31.59-.56,1.89-1.11,2.63H34.69A11.32,11.32,0,0,1,39.55,17.81Zm-15.18.24c.08.19-.08,1.16-1.15,2.68H20C22.23,18.53,24.06,18,24.37,18.05ZM6.14,23.59A.49.49,0,0,1,6,23a.5.5,0,0,1,.46-.31H39.09C20.1,30.09,13.29,31,6.14,23.59Zm23,5a.21.21,0,0,1-.14.18l-2.52,1a7.62,7.62,0,0,1-4.14.42,58.32,58.32,0,0,0,6.76-1.74A.2.2,0,0,1,29.12,28.59Zm11.24-3a6.64,6.64,0,0,1-2.07-.44l2.66-1a3.39,3.39,0,0,1,1,1c0,.09,0,.17.06.17h0C42,25.41,41.53,25.66,40.36,25.62Z"/><path class="cls-3" d="M12.23,23.34a1,1,0,0,0-1,1v2a1,1,0,0,0,2,0v-2A1,1,0,0,0,12.23,23.34Z"/></svg>