<?xml version="1.0" standalone="no"?>
<!DOCTYPE svg PUBLIC "-//W3C//DTD SVG 20010904//EN"
 "http://www.w3.org/TR/2001/REC-SVG-20010904/DTD/svg10.dtd">
<svg version="1.0" xmlns="http://www.w3.org/2000/svg"
 width="820.000000pt" height="530.000000pt" viewBox="0 0 820.000000 530.000000"
 preserveAspectRatio="xMidYMid meet">
<metadata>
Created by potrace 1.16, written by Peter Selinger 2001-2019
</metadata>
<g transform="translate(0.000000,530.000000) scale(0.100000,-0.100000)"
fill="#000000" stroke="none">
<path d="M5067 5079 c-119 -28 -247 -159 -247 -253 0 -20 4 -36 10 -36 5 0 31
14 57 30 64 41 102 50 206 50 101 0 188 -25 251 -71 49 -36 164 -164 206 -229
59 -92 101 -215 107 -313 l6 -89 -49 7 c-56 8 -133 39 -183 72 -25 17 -48 23
-91 23 -48 0 -60 4 -78 25 -27 31 -65 32 -89 2 -29 -37 -78 -42 -127 -13 -23
13 -59 27 -81 31 -41 7 -137 56 -213 107 -24 16 -52 28 -65 26 -18 -2 -22 -10
-25 -48 -5 -78 16 -107 190 -271 277 -259 400 -357 598 -476 103 -62 132 -87
280 -237 153 -156 264 -253 368 -321 23 -15 42 -32 42 -36 0 -13 -74 -11 -102
2 -19 8 -35 5 -88 -20 -74 -35 -107 -39 -126 -13 -12 16 -15 15 -46 -15 -38
-37 -85 -50 -118 -33 -17 9 -25 9 -39 -4 -24 -22 -31 -20 -31 8 0 28 -33 56
-66 56 -28 0 -37 13 -53 75 -16 63 -25 73 -68 77 -32 3 -38 7 -50 43 -15 45
-27 55 -65 55 -44 0 -59 11 -79 58 -19 44 -20 45 -60 39 -55 -7 -65 -2 -91 44
-20 35 -25 39 -50 34 -55 -13 -87 3 -113 56 -14 27 -30 49 -36 49 -5 0 -27
-11 -47 -25 -23 -16 -51 -25 -74 -25 -37 0 -38 1 -38 38 0 26 7 45 20 57 23
20 29 105 8 105 -6 0 -41 -30 -76 -67 -64 -67 -65 -67 -80 -45 -8 12 -21 22
-28 22 -22 0 -16 41 16 121 40 96 74 153 123 206 22 24 38 46 35 48 -3 3 -27
-9 -53 -27 -61 -42 -113 -127 -156 -255 -17 -52 -38 -97 -46 -100 -8 -3 -26 0
-40 6 -19 9 -33 9 -59 -1 -27 -10 -39 -10 -54 0 -30 19 -49 15 -92 -19 l-39
-32 -33 32 c-36 35 -46 37 -85 16 -23 -11 -34 -12 -60 -2 -24 9 -36 9 -51 -1
-38 -24 -57 -15 -76 36 -69 188 -105 249 -178 298 -28 19 -54 34 -59 34 -4 0
19 -31 51 -68 56 -66 137 -213 149 -273 4 -21 1 -28 -15 -33 -11 -4 -23 -13
-26 -21 -9 -25 -24 -17 -84 45 -32 33 -66 60 -75 60 -28 0 -22 -63 9 -99 18
-22 24 -40 22 -63 -3 -29 -7 -33 -36 -36 -22 -2 -48 5 -76 22 -48 28 -59 25
-80 -25 -21 -52 -39 -62 -90 -57 -44 5 -45 5 -75 -43 -30 -48 -31 -49 -78 -46
-48 2 -48 2 -68 -41 -16 -35 -27 -44 -60 -53 -61 -16 -69 -23 -81 -65 -10 -35
-14 -39 -47 -42 -44 -4 -52 -13 -69 -82 -11 -47 -17 -56 -43 -63 -52 -16 -60
-23 -63 -61 -4 -40 -8 -43 -32 -21 -14 12 -23 13 -46 5 -37 -14 -69 -6 -113
30 -35 29 -35 29 -53 10 -22 -23 -44 -21 -130 17 -50 22 -62 24 -87 14 -15 -7
-46 -11 -67 -9 l-38 3 80 59 c95 72 262 233 387 374 78 88 112 117 232 197
182 121 287 210 526 446 220 217 241 248 219 328 -6 22 -17 41 -24 41 -8 0
-42 -20 -77 -44 -102 -69 -170 -103 -221 -111 -34 -4 -53 -13 -68 -32 -17 -22
-25 -25 -57 -20 -20 4 -48 18 -63 32 -34 32 -55 32 -86 -2 -21 -23 -35 -28
-81 -29 -39 -1 -63 -8 -82 -23 -50 -40 -120 -71 -175 -77 l-56 -7 0 77 c0 91
42 232 95 321 44 72 169 218 214 249 71 48 155 68 271 64 97 -3 110 -6 162
-36 32 -17 62 -32 68 -32 18 0 10 55 -16 109 -29 58 -96 115 -179 153 -43 19
-67 22 -180 23 -155 0 -225 -18 -377 -97 -111 -58 -194 -135 -302 -279 -84
-112 -116 -139 -167 -139 -30 0 -46 -6 -63 -25 -13 -14 -33 -25 -44 -25 -14 0
-42 -26 -83 -77 -35 -43 -115 -139 -179 -213 -176 -205 -244 -290 -282 -350
-63 -99 -110 -202 -133 -294 -26 -102 -34 -126 -44 -126 -4 0 -15 -6 -24 -13
-16 -11 -16 -16 -1 -66 9 -32 13 -67 9 -85 -3 -17 -9 -84 -13 -149 -6 -99 -10
-121 -26 -132 -21 -16 -21 -20 24 -166 l30 -96 89 -86 c98 -95 140 -120 235
-142 36 -8 111 -37 168 -64 57 -26 120 -56 141 -65 21 -9 35 -21 32 -26 -12
-20 -61 -9 -159 37 -76 35 -118 49 -167 54 -73 6 -101 18 -231 100 -48 30
-115 70 -149 89 -34 19 -82 55 -106 79 -48 47 -47 42 -27 138 8 41 -8 49 -64
34 -55 -15 -81 -39 -102 -94 -16 -42 -16 -48 -2 -69 45 -68 154 -148 387 -285
166 -97 209 -118 372 -179 79 -29 158 -63 176 -76 28 -20 49 -24 157 -29 114
-6 200 -21 200 -35 0 -3 -95 -4 -211 -3 -127 2 -213 -1 -217 -6 -4 -6 -54 -11
-112 -11 -131 -2 -268 -26 -384 -65 -64 -22 -100 -29 -125 -25 -20 3 -124 36
-231 72 -217 74 -267 84 -302 60 -12 -9 -41 -16 -63 -16 -22 0 -50 -7 -63 -15
-34 -25 -70 -95 -78 -152 -6 -45 -4 -54 12 -60 13 -5 30 7 69 50 45 51 54 57
90 57 62 0 350 -64 444 -99 114 -42 223 -63 280 -55 25 3 93 19 151 34 58 16
138 32 177 35 63 6 79 4 118 -15 44 -21 51 -22 138 -11 99 13 282 2 387 -22
51 -11 40 -12 -165 -17 -214 -6 -223 -7 -311 -37 -172 -59 -291 -129 -400
-235 -40 -39 -63 -52 -110 -64 -32 -9 -85 -29 -117 -45 -76 -38 -235 -147
-252 -173 -34 -53 -26 -230 14 -337 29 -77 95 -183 116 -188 17 -3 17 9 12
170 -4 96 -9 188 -13 204 l-6 31 149 71 c81 39 168 80 193 91 25 11 71 42 103
71 61 54 94 74 139 85 15 3 68 44 118 91 50 47 94 85 98 85 4 0 18 -7 30 -16
16 -11 70 -20 179 -30 86 -7 189 -21 229 -29 40 -9 121 -24 180 -33 59 -10
109 -22 111 -28 2 -7 -16 -23 -41 -38 -70 -41 -96 -78 -96 -139 0 -29 5 -68
10 -87 11 -39 82 -120 105 -120 22 0 19 -14 -15 -74 -56 -98 -63 -287 -16
-391 13 -27 33 -81 45 -120 53 -166 140 -247 331 -306 61 -19 98 -24 195 -24
115 0 123 1 185 32 71 35 175 121 185 154 12 38 -42 97 -184 202 -82 60 -108
74 -190 97 l-95 27 3 51 c1 33 -9 92 -28 166 -41 153 -66 217 -101 261 -55 69
-49 72 150 83 124 7 141 11 207 41 70 33 76 34 165 29 65 -4 106 -1 141 9 38
11 60 12 96 4 25 -5 111 -13 191 -16 138 -7 146 -6 172 15 l27 21 29 -21 c27
-20 30 -20 195 -6 91 8 174 19 183 24 10 6 30 6 53 0 65 -18 95 -19 176 -10
79 10 81 9 150 -24 69 -34 72 -34 210 -34 201 0 210 -5 155 -82 -17 -22 -39
-71 -49 -107 -39 -135 -71 -291 -69 -331 l3 -41 -70 -24 c-38 -13 -76 -24 -83
-25 -8 0 -55 -32 -105 -71 -170 -133 -208 -179 -187 -228 13 -31 102 -100 180
-139 51 -25 64 -27 170 -27 126 1 214 21 320 75 120 61 172 128 214 272 14 48
33 102 42 120 23 43 30 176 15 264 -12 67 -30 114 -65 166 -18 27 -18 28 5 37
27 10 71 54 88 88 19 38 18 134 -2 179 -17 37 -37 55 -106 94 -29 16 -3 37 55
45 31 4 111 20 178 36 66 16 183 37 261 45 95 10 152 21 179 35 44 23 37 26
135 -64 35 -32 77 -64 95 -72 17 -7 50 -21 73 -30 23 -10 67 -39 99 -66 37
-31 90 -61 153 -87 53 -22 139 -60 193 -84 l96 -43 -5 -190 c-4 -159 -3 -193
10 -210 14 -18 16 -17 46 30 57 90 94 201 99 297 6 119 -3 170 -36 203 -69 69
-265 176 -361 196 -41 9 -67 22 -96 49 -119 111 -260 186 -453 243 -70 20 -96
22 -287 20 -227 -2 -235 5 -35 33 79 11 152 15 234 11 105 -5 124 -3 155 14
54 29 172 26 302 -8 169 -44 244 -38 434 36 98 38 386 111 440 111 34 0 45 -7
87 -51 61 -63 84 -63 80 1 -4 57 -36 124 -72 150 -18 13 -44 20 -74 20 -34 0
-51 5 -63 20 -10 11 -25 20 -34 20 -10 0 -91 -29 -181 -64 -209 -82 -310 -116
-341 -116 -13 0 -42 7 -62 16 -85 35 -209 55 -369 60 -88 3 -165 9 -170 13 -6
5 -101 5 -210 0 -110 -5 -201 -7 -203 -5 -13 13 114 40 200 42 89 2 102 5 145
33 26 16 114 57 196 90 225 92 531 285 664 419 75 75 82 86 69 101 -8 9 -17
28 -21 43 -9 39 -60 71 -123 76 -47 4 -53 2 -53 -14 0 -11 9 -32 20 -49 11
-16 20 -38 20 -47 0 -30 -102 -120 -206 -182 -54 -33 -123 -77 -152 -98 -61
-45 -119 -68 -173 -68 -27 0 -67 -15 -131 -48 -51 -27 -108 -53 -126 -60 -32
-11 -62 -7 -62 8 0 13 280 147 345 165 89 24 132 54 227 154 81 85 86 93 106
168 39 144 41 162 25 171 -19 11 -32 72 -33 154 0 37 -7 85 -16 107 -14 35
-14 44 0 99 20 75 21 69 -13 86 -24 13 -32 28 -55 113 -56 201 -131 310 -463
671 -62 67 -136 151 -164 185 -58 69 -67 77 -91 77 -10 0 -27 9 -38 20 -14 14
-33 20 -63 20 -23 0 -52 7 -65 15 -12 9 -60 63 -107 120 -123 150 -199 215
-312 270 -132 65 -220 85 -357 84 -61 -1 -128 -5 -149 -10z m473 -3017 c0 -19
-216 -102 -266 -102 -29 0 -34 4 -34 23 0 48 20 59 136 72 140 16 164 17 164
7z m-2502 -47 c99 -6 114 -10 127 -28 19 -28 19 -53 0 -61 -38 -14 -293 73
-279 96 3 5 13 7 22 4 10 -2 68 -8 130 -11z"/>
</g>
</svg>
