<?xml version="1.0" standalone="no"?>
<!DOCTYPE svg PUBLIC "-//W3C//DTD SVG 20010904//EN"
 "http://www.w3.org/TR/2001/REC-SVG-20010904/DTD/svg10.dtd">
<svg version="1.0" xmlns="http://www.w3.org/2000/svg"
 width="512.000000pt" height="511.000000pt" viewBox="0 0 512.000000 511.000000"
 preserveAspectRatio="xMidYMid meet">
<metadata>
Created by potrace 1.16, written by Peter Selinger 2001-2019
</metadata>
<g transform="translate(0.000000,511.000000) scale(0.100000,-0.100000)"
fill="#000000" stroke="none">
<path d="M1405 4140 c-448 -33 -751 -97 -944 -201 -69 -37 -241 -165 -241
-179 0 -3 5 -11 11 -17 9 -9 51 8 168 67 160 81 239 108 442 154 313 70 553
96 964 103 420 7 612 -3 1218 -68 303 -32 337 -34 337 -19 0 16 -65 29 -325
65 -552 76 -775 95 -1185 100 -179 2 -379 0 -445 -5z"/>
<path d="M1190 3919 c-233 -16 -463 -54 -664 -110 -312 -88 -449 -196 -501
-396 -20 -78 -19 -114 10 -211 34 -116 70 -184 139 -259 101 -110 219 -177
432 -246 223 -72 462 -110 814 -128 295 -16 419 -6 420 32 0 7 -192 55 -255
64 -22 3 -159 16 -305 30 -481 44 -634 77 -830 175 -149 74 -249 170 -307 295
-24 53 -28 72 -28 155 0 87 3 100 30 148 60 109 175 186 375 251 317 103 625
138 1120 126 511 -11 1128 -36 1234 -49 58 -7 106 -10 106 -6 0 34 -76 44
-785 105 -384 34 -736 42 -1005 24z"/>
<path d="M191 3483 c-39 -47 -40 -92 -6 -201 86 -274 379 -454 865 -531 131
-21 478 -56 485 -49 3 2 6 15 7 27 3 22 -5 26 -96 52 -54 16 -169 40 -255 54
-320 53 -509 108 -660 191 -87 49 -200 162 -234 236 -33 68 -57 159 -57 210 0
51 -13 54 -49 11z"/>
<path d="M3735 3447 c104 -77 182 -180 215 -286 33 -104 24 -111 -30 -21 -92
152 -166 220 -279 254 -63 18 -190 21 -277 5 -102 -18 -100 -12 -35 -90 142
-169 201 -379 156 -553 -24 -92 -83 -193 -157 -271 -38 -38 -68 -71 -68 -72 0
-3 67 -23 145 -43 44 -11 123 -23 175 -26 163 -10 284 31 393 135 211 199 241
470 85 774 -54 104 -125 169 -215 197 -36 11 -82 20 -102 20 l-36 -1 30 -22z"/>
<path d="M1523 3399 l5 -41 -59 6 c-32 4 -59 4 -59 1 0 -14 40 -82 58 -98 50
-45 149 -22 173 40 19 51 8 76 -46 105 -70 39 -79 37 -72 -13z"/>
<path d="M3030 3403 c8 -11 46 -58 83 -104 121 -149 187 -281 187 -371 0 -45
-27 -115 -51 -135 -12 -10 -14 2 -11 79 3 85 2 93 -31 161 -62 131 -172 239
-312 307 -102 50 -163 58 -351 48 -207 -11 -794 -67 -815 -78 -9 -5 -35 -25
-58 -44 -78 -65 -180 -69 -258 -10 -34 26 -59 88 -47 118 6 14 -18 16 -235 16
-142 0 -241 -4 -241 -9 0 -5 26 -15 57 -21 115 -24 218 -48 207 -49 -33 -3
-447 -80 -451 -85 -25 -25 24 -33 503 -85 275 -30 505 -57 512 -61 7 -3 -92
-16 -220 -29 -128 -12 -241 -25 -250 -28 -10 -2 -18 -14 -18 -26 0 -19 20 -32
123 -79 67 -31 241 -113 387 -181 560 -263 672 -307 840 -332 258 -40 509 0
656 104 269 188 256 592 -26 824 -52 43 -111 74 -160 84 -34 6 -34 6 -20 -14z"/>
<path d="M4110 3266 c0 -2 13 -32 30 -67 70 -151 89 -326 49 -469 -54 -196
-176 -327 -378 -406 l-73 -29 38 -32 c63 -52 154 -92 242 -105 105 -15 222 6
340 62 106 50 161 88 246 169 124 119 202 262 213 392 5 57 2 74 -19 120 -33
72 -92 145 -160 197 -64 49 -206 132 -226 132 -8 0 23 -40 69 -88 99 -104 142
-173 164 -261 20 -77 10 -152 -32 -243 l-28 -60 0 124 c0 123 0 125 -37 200
-58 117 -158 210 -350 327 -61 37 -88 48 -88 37z"/>
<path d="M4835 2583 c-48 -83 -121 -176 -192 -244 -156 -151 -325 -221 -566
-236 -59 -3 -106 -9 -105 -12 27 -56 130 -209 159 -236 94 -85 276 -146 439
-147 248 -3 444 89 516 240 55 114 42 277 -28 373 l-33 44 -5 -150 c-5 -140
-7 -153 -32 -196 -25 -42 -93 -99 -119 -99 -6 0 3 17 19 38 16 20 36 51 45 67
23 45 30 158 18 255 -12 91 -68 330 -81 343 -4 5 -20 -13 -35 -40z"/>
<path d="M1882 2523 c-19 -9 -65 -50 -102 -92 -108 -119 -380 -455 -380 -469
-1 -57 110 25 252 186 121 136 204 213 307 288 45 31 81 63 81 69 0 34 -103
45 -158 18z"/>
<path d="M2035 2432 c-57 -27 -110 -90 -240 -287 -107 -162 -245 -394 -245
-413 0 -12 39 -46 45 -40 3 3 20 30 38 59 65 106 322 455 377 509 60 61 127
97 194 106 23 4 53 14 66 24 l24 18 -40 17 c-61 27 -170 30 -219 7z"/>
<path d="M2296 2367 c-66 -66 -341 -744 -321 -794 19 -50 72 35 225 357 152
322 161 335 260 389 l55 30 -40 17 c-22 10 -66 19 -97 22 -50 4 -59 2 -82 -21z"/>
<path d="M2565 2331 c-86 -24 -166 -87 -185 -147 -19 -57 -169 -778 -164 -786
14 -23 42 -5 62 40 29 64 117 364 142 485 27 133 53 189 113 242 51 47 58 49
282 110 118 32 125 36 96 47 -33 12 -310 19 -346 9z"/>
<path d="M3291 2303 c-18 -17 -51 -77 -84 -153 -71 -164 -87 -211 -87 -266 0
-37 3 -45 17 -42 16 3 262 429 263 456 0 13 -39 32 -65 32 -8 0 -28 -12 -44
-27z"/>
<path d="M3495 2289 c-27 -4 -55 -16 -62 -25 -31 -42 -94 -177 -108 -230 -16
-62 -20 -179 -7 -188 8 -5 242 425 242 444 0 6 -3 9 -7 9 -5 -1 -30 -5 -58
-10z"/>
<path d="M1995 2157 c-112 -175 -273 -511 -292 -610 -6 -34 158 206 247 360
61 107 138 343 112 343 -4 0 -34 -42 -67 -93z"/>
<path d="M3652 2188 c-137 -147 -182 -208 -197 -270 -6 -21 -4 -28 8 -28 8 0
88 66 177 146 l161 146 -22 24 c-36 39 -79 33 -127 -18z"/>
<path d="M3793 2122 c-126 -100 -247 -292 -183 -292 13 0 330 280 330 291 0 5
-82 39 -96 39 -1 0 -24 -17 -51 -38z"/>
<path d="M4045 1778 c-54 -115 -20 -234 100 -353 74 -73 204 -143 314 -171
100 -25 259 -16 333 18 66 31 149 105 183 163 24 42 48 115 40 124 -3 2 -38
-28 -79 -67 -67 -65 -157 -122 -194 -122 -8 0 12 20 45 44 69 53 120 118 162
206 36 75 39 95 14 85 -10 -3 -65 -18 -123 -33 -140 -35 -352 -37 -471 -4 -94
25 -178 67 -247 122 l-53 41 -24 -53z"/>
<path d="M3848 1764 c-80 -40 -106 -58 -102 -69 5 -11 22 -15 66 -15 100 0
153 39 146 107 l-3 31 -107 -54z"/>
<path d="M3768 1431 c-122 -92 -193 -152 -204 -173 -22 -41 -21 -121 0 -173
l16 -37 -23 14 c-12 8 -35 34 -51 57 -53 74 -40 144 54 278 23 32 36 59 30 61
-5 2 -61 -21 -123 -50 -142 -69 -177 -105 -177 -181 0 -75 38 -147 124 -233
115 -115 243 -163 432 -164 177 0 355 47 532 141 93 49 265 160 276 177 3 5
-26 13 -65 16 -164 17 -328 80 -441 171 -48 39 -147 157 -183 219 -9 15 -34
-1 -197 -123z"/>
<path d="M2220 1294 c-36 -14 -68 -28 -72 -32 -12 -12 75 -125 127 -165 68
-52 253 -142 345 -167 109 -30 251 -50 360 -50 76 0 357 27 368 35 1 1 -37 77
-85 168 l-87 166 -41 5 c-122 14 -758 66 -800 66 -28 -1 -79 -12 -115 -26z"/>
<path d="M2529 872 c-25 -11 -109 -67 -109 -72 0 -3 23 -20 52 -39 38 -25 69
-36 122 -43 99 -13 393 -12 501 1 151 20 455 93 455 111 0 4 -25 13 -56 20
-49 12 -81 11 -233 -3 -353 -34 -465 -32 -633 13 -81 22 -77 21 -99 12z"/>
</g>
</svg>
